<svg xmlns="http://www.w3.org/2000/svg" viewBox="0 0 40 19">
    <g>
        <path d="M11.1214 3.229L8.85495 0.955505L2.94076 6.85283L0 9.8015L2.94076 12.7829L8.85495 18.6803L11.1214 16.4068L4.64877 9.8015L11.1214 3.229Z"/>
<path d="M19.9259 16.7687C18.6654 16.7687 17.4977 16.4536 16.4226 15.8234C15.3753 15.2025 14.5412 14.3684 13.9203 13.3211C13.2901 12.246 12.975 11.0783 12.975 9.81785C12.975 8.55743 13.2901 7.38968 13.9203 6.31461C14.5412 5.26734 15.3753 4.43324 16.4226 3.81229C17.4977 3.18208 18.6654 2.86697 19.9259 2.86697C21.1863 2.86697 22.354 3.18208 23.4291 3.81229C24.4764 4.43324 25.3105 5.26734 25.9314 6.31461C26.5616 7.38968 26.8767 8.55743 26.8767 9.81785C26.8767 11.0783 26.5616 12.246 25.9314 13.3211C25.3105 14.3684 24.4764 15.2025 23.4291 15.8234C22.354 16.4536 21.1863 16.7687 19.9259 16.7687ZM19.2308 10.3739V12.5982H20.621V10.3739C21.0009 10.2071 21.2836 9.94297 21.469 9.58152C21.6543 9.21081 21.7053 8.82619 21.6219 8.42768C21.5385 8.01989 21.3346 7.68625 21.0102 7.42675C20.6951 7.16725 20.3336 7.0375 19.9259 7.0375C19.5181 7.0375 19.152 7.16725 18.8276 7.42675C18.5125 7.68625 18.3133 8.01989 18.2298 8.42768C18.1464 8.82619 18.1974 9.21081 18.3828 9.58152C18.5681 9.94297 18.8508 10.2071 19.2308 10.3739Z"/>
<path d="M36.6793 6.85283L30.7977 0.955505L28.4986 3.229L34.9861 9.8015L28.4986 16.4068L30.7977 18.6803L36.6793 12.7829L39.62 9.8015L36.6793 6.85283Z"/>
        <path d="M11.1214 3.229L8.85495 0.955505L2.94076 6.85283L0 9.8015L2.94076 12.7829L8.85495 18.6803L11.1214 16.4068L4.64877 9.8015L11.1214 3.229Z"/>
<path d="M19.9259 16.7687C18.6654 16.7687 17.4977 16.4536 16.4226 15.8234C15.3753 15.2025 14.5412 14.3684 13.9203 13.3211C13.2901 12.246 12.975 11.0783 12.975 9.81785C12.975 8.55743 13.2901 7.38968 13.9203 6.31461C14.5412 5.26734 15.3753 4.43324 16.4226 3.81229C17.4977 3.18208 18.6654 2.86697 19.9259 2.86697C21.1863 2.86697 22.354 3.18208 23.4291 3.81229C24.4764 4.43324 25.3105 5.26734 25.9314 6.31461C26.5616 7.38968 26.8767 8.55743 26.8767 9.81785C26.8767 11.0783 26.5616 12.246 25.9314 13.3211C25.3105 14.3684 24.4764 15.2025 23.4291 15.8234C22.354 16.4536 21.1863 16.7687 19.9259 16.7687ZM19.2308 10.3739V12.5982H20.621V10.3739C21.0009 10.2071 21.2836 9.94297 21.469 9.58152C21.6543 9.21081 21.7053 8.82619 21.6219 8.42768C21.5385 8.01989 21.3346 7.68625 21.0102 7.42675C20.6951 7.16725 20.3336 7.0375 19.9259 7.0375C19.5181 7.0375 19.152 7.16725 18.8276 7.42675C18.5125 7.68625 18.3133 8.01989 18.2298 8.42768C18.1464 8.82619 18.1974 9.21081 18.3828 9.58152C18.5681 9.94297 18.8508 10.2071 19.2308 10.3739Z"/>
<path d="M36.6793 6.85283L30.7977 0.955505L28.4986 3.229L34.9861 9.8015L28.4986 16.4068L30.7977 18.6803L36.6793 12.7829L39.62 9.8015L36.6793 6.85283Z"/>
    </g>

</svg>
